<?xml version="1.0" encoding="utf-8"?>
<!-- Generator: Adobe Illustrator 26.0.2, SVG Export Plug-In . SVG Version: 6.00 Build 0)  -->
<svg version="1.1" xmlns="http://www.w3.org/2000/svg" xmlns:xlink="http://www.w3.org/1999/xlink" x="0px" y="0px"
	 viewBox="0 0 656.4 200" style="enable-background:new 0 0 656.4 200;" xml:space="preserve">
<style type="text/css">
	.st0{fill:#007B98;}
	.st1{fill:#00DFC3;}
	.st2{fill:#808080;}
</style>
<g id="Layer_1">
	<path class="st0" d="M74.5,36.5c0,1.3-0.5,2.6-1.5,3.5L43.7,69.3c0,0-0.1,0.1-0.1,0.1c-10.9,11-10.9,28.9,0.1,39.8l28.9,28.9
		c0.9,0.9,2.3,0.9,3.1,0l28.9-28.9c10.6-10.6,11-27.7,1.1-38.8L78.2,97.7c-1.5,1.4-4,0.4-4-1.7l0-25.1c0-1.7,0.7-3.3,1.9-4.6
		l27.4-27.4c0.9-0.9,2.3-0.9,3.2,0l16.8,16.8c9.7,9.7,14.6,22.7,13.8,36.5c-0.7,11.9-6.2,23-14.6,31.4l-46.9,46.9
		c-0.4,0.4-1,0.7-1.6,0.7c-0.6,0-1.1-0.2-1.6-0.7L25,122.9C6.5,104.3,6.5,74.2,25,55.7L71.7,8.8c1-1,2.8-0.3,2.8,1.1L74.5,36.5z"/>
	<path class="st1" d="M74.2,171.1c0.6,0,1.1-0.2,1.6-0.7l46.9-46.9c8.4-8.4,13.9-19.5,14.6-31.4c0.8-13.8-4.2-26.9-13.8-36.5
		l-16.8-16.8c-0.9-0.9-2.3-0.9-3.2,0L76.1,66.3c-1.2,1.2-1.9,2.8-1.9,4.6l0,26.9c0,1.4,1.7,2.1,2.7,1.1l28.8-28.4
		c9.9,11.1,9.5,28.1-1.1,38.8l-28.9,28.9c-0.4,0.4-1,0.6-1.6,0.7L74.2,171.1z"/>
	<g>
		<path class="st0" d="M173,182.3l1-2.1c1.4,1.3,3.8,2.2,6.3,2.2c3.3,0,4.7-1.3,4.7-2.9c0-4.6-11.5-1.7-11.5-8.8
			c0-2.9,2.3-5.4,7.3-5.4c2.2,0,4.5,0.6,6.1,1.7l-0.9,2.2c-1.7-1.1-3.5-1.5-5.2-1.5c-3.2,0-4.6,1.4-4.6,3c0,4.6,11.5,1.7,11.5,8.7
			c0,2.9-2.3,5.4-7.3,5.4C177.4,184.6,174.5,183.7,173,182.3z"/>
		<path class="st0" d="M199,167.8h-6.5v-2.4h15.7v2.4h-6.5v16.6H199V167.8z"/>
		<path class="st0" d="M227.8,184.4l-4.1-5.8c-0.4,0-0.8,0.1-1.2,0.1h-4.7v5.8h-2.7v-19h7.4c4.9,0,7.9,2.5,7.9,6.6
			c0,2.9-1.5,5-4.2,6l4.5,6.4H227.8z M227.7,172.1c0-2.7-1.8-4.3-5.3-4.3h-4.6v8.5h4.6C225.9,176.3,227.7,174.8,227.7,172.1z"/>
		<path class="st0" d="M250.9,179.7h-10.1l-2.1,4.7h-2.8l8.6-19h2.7l8.6,19H253L250.9,179.7z M249.9,177.5l-4.1-9.3l-4.1,9.3H249.9z
			"/>
		<path class="st0" d="M265.4,167.8h-6.5v-2.4h15.7v2.4h-6.5v16.6h-2.7V167.8z"/>
		<path class="st0" d="M295.3,182.1v2.4h-13.8v-19h13.4v2.4h-10.7v5.8h9.5v2.3h-9.5v6.1H295.3z"/>
		<path class="st0" d="M316.7,174.8h2.6v7.4c-1.9,1.6-4.5,2.4-7.2,2.4c-5.8,0-10.1-4.1-10.1-9.7s4.3-9.7,10.2-9.7c3,0,5.6,1,7.3,2.9
			l-1.7,1.7c-1.6-1.5-3.4-2.2-5.5-2.2c-4.4,0-7.6,3.1-7.6,7.3c0,4.2,3.2,7.3,7.5,7.3c1.6,0,3.1-0.4,4.4-1.2V174.8z"/>
		<path class="st0" d="M328.4,165.5h2.7v19h-2.7V165.5z"/>
		<path class="st0" d="M339.2,174.9c0-5.6,4.3-9.7,10.1-9.7c2.9,0,5.5,1,7.2,3l-1.8,1.7c-1.5-1.5-3.3-2.2-5.3-2.2
			c-4.3,0-7.5,3.1-7.5,7.3s3.2,7.3,7.5,7.3c2.1,0,3.9-0.7,5.3-2.3l1.8,1.7c-1.7,2-4.3,3-7.2,3C343.5,184.6,339.2,180.5,339.2,174.9z
			"/>
		<path class="st0" d="M393.2,184.4l0-13.8l-6.9,11.5H385l-6.9-11.4v13.7h-2.6v-19h2.2l7.9,13.3l7.8-13.3h2.2l0,19H393.2z"/>
		<path class="st0" d="M417.5,179.7h-10.1l-2.1,4.7h-2.8l8.6-19h2.7l8.6,19h-2.8L417.5,179.7z M416.6,177.5l-4.1-9.3l-4.1,9.3H416.6
			z"/>
		<path class="st0" d="M441.9,184.4l-4.1-5.8c-0.4,0-0.8,0.1-1.2,0.1h-4.7v5.8h-2.7v-19h7.4c4.9,0,7.9,2.5,7.9,6.6
			c0,2.9-1.5,5-4.2,6l4.5,6.4H441.9z M441.8,172.1c0-2.7-1.8-4.3-5.3-4.3h-4.6v8.5h4.6C440,176.3,441.8,174.8,441.8,172.1z"/>
		<path class="st0" d="M459.1,176l-3.5,3.5v4.9h-2.7v-19h2.7v10.6l10.3-10.6h3.1l-8.1,8.5l8.6,10.4h-3.2L459.1,176z"/>
		<path class="st0" d="M490.1,182.1v2.4h-13.8v-19h13.4v2.4h-10.7v5.8h9.5v2.3h-9.5v6.1H490.1z"/>
		<path class="st0" d="M502.2,167.8h-6.5v-2.4h15.7v2.4h-6.5v16.6h-2.7V167.8z"/>
		<path class="st0" d="M518.3,165.5h2.7v19h-2.7V165.5z"/>
		<path class="st0" d="M547,165.5v19h-2.2l-11.4-14.1v14.1h-2.7v-19h2.2l11.4,14.1v-14.1H547z"/>
		<path class="st0" d="M569.8,174.8h2.6v7.4c-1.9,1.6-4.5,2.4-7.2,2.4c-5.8,0-10.1-4.1-10.1-9.7s4.3-9.7,10.2-9.7c3,0,5.6,1,7.3,2.9
			l-1.7,1.7c-1.6-1.5-3.4-2.2-5.5-2.2c-4.4,0-7.6,3.1-7.6,7.3c0,4.2,3.2,7.3,7.5,7.3c1.6,0,3.1-0.4,4.4-1.2V174.8z"/>
	</g>
	<g>
		<path class="st2" d="M251.8,91.6H211c-0.2,0-0.4,0.2-0.3,0.4l2.1,10.3c1.1,2.8,3.9,4.7,7,4.7h14.8c0.2,0,0.3,0.2,0.3,0.3v14.5
			c0,0.1,0,0.2-0.1,0.3c-4.8,4.2-11.6,6.2-20.3,6.2c-5.8,0-11.1-1.4-15.9-4.2c-4.9-2.8-8.7-6.7-11.7-11.8
			c-2.9-5.1-4.4-11.1-4.4-17.9c0-6.1,1.2-11.8,3.7-17.1c2.5-5.2,6-9.4,10.5-12.6c4.6-3.2,10-4.8,16.2-4.8c6.1,0,11.3,1.3,15.4,4
			c4,2.6,7.5,6.1,10.5,10.4c0.1,0.2,0.3,0.2,0.5,0.1l12.3-10.9c0.1-0.1,0.2-0.3,0.1-0.5c-3.8-5.3-8.8-9.8-15-13.4
			c-6.3-3.7-14.2-5.6-23.7-5.6c-7.3,0-14,1.3-20,4c-6.1,2.6-11.3,6.3-15.6,11c-4.4,4.7-7.8,10.1-10.2,16.2
			c-2.4,6.2-3.6,12.7-3.6,19.8c0,9.3,2,17.8,6.1,25.3c4,7.5,9.8,13.5,17.3,17.9c7.5,4.4,16.5,6.6,27,6.6c9.7,0,17.6-1.3,23.7-4
			c6-2.7,10.9-5.8,14.7-9.3c0.1-0.1,0.1-0.2,0.1-0.3V91.9C252.1,91.7,252,91.6,251.8,91.6z"/>
		<path class="st2" d="M302.4,73.8c-1.3-0.2-2.8-0.3-4.4-0.3c-3.7,0-6.8,0.6-9.4,1.7c-2.6,1.1-4.9,2.4-6.6,3.9
			c-1.8,1.5-3.2,2.9-4.3,4.3c-0.2-4.8-4.2-8.5-9-8.5h-7.8v67.6h17V106c0-5,1.7-9,5-12c3.4-3,7.4-4.5,12.1-4.5c2.9,0,5.5,0.4,7.8,1.3
			l3.5-16C305,74.4,303.7,74,302.4,73.8z"/>
		<path class="st2" d="M360.9,77.4c-5.4-3.3-11.7-4.9-19-4.9c-7.2,0-13.5,1.6-19,4.9c-5.4,3.3-9.7,7.6-12.8,13.1
			c-3.1,5.5-4.6,11.5-4.6,18c0,6.5,1.5,12.5,4.6,18c3.1,5.5,7.3,9.9,12.8,13.2c5.4,3.3,11.7,5,19,5c7.2,0,13.5-1.7,19-5
			c5.4-3.3,9.7-7.7,12.8-13.2c3.1-5.5,4.6-11.5,4.6-18c0-6.5-1.5-12.5-4.6-18C370.6,85.1,366.3,80.7,360.9,77.4z M359,118.5
			c-1.4,3.3-3.5,6.1-6.3,8.3c-2.8,2.2-6.4,3.3-10.7,3.3s-7.9-1.1-10.7-3.3c-2.8-2.2-5-5-6.3-8.3c-1.4-3.3-2.1-6.6-2.1-9.9
			c0-3.3,0.7-6.5,2.1-9.8c1.4-3.3,3.5-6,6.3-8.2c2.8-2.2,6.4-3.3,10.7-3.3s7.9,1.1,10.7,3.3c2.8,2.2,4.9,5,6.3,8.2
			c1.4,3.3,2.1,6.5,2.1,9.8C361.1,111.9,360.4,115.1,359,118.5z"/>
		<path class="st2" d="M413.3,123.3l-14.3-38c-2.3-6.3-8.3-10.4-15-10.4h-8.5l28.7,67.6h17.3l28.5-67.6h-18.6L413.3,123.3z"/>
		<path class="st2" d="M510.5,84.7c-2.6-3.7-6-6.7-10.2-8.9c-4.2-2.2-9.5-3.3-15.7-3.3c-6.7,0-12.7,1.6-17.8,4.7
			c-5.1,3.1-9.2,7.4-12.1,12.7c-2.9,5.3-4.4,11.3-4.4,17.9c0,7.2,1.5,13.6,4.5,19.2c3,5.6,7.1,9.9,12.5,13
			c5.3,3.1,11.6,4.7,18.8,4.7c5.3,0,9.8-0.6,13.6-1.7c3.8-1.1,6.9-2.4,9.4-3.9c2.5-1.5,4.3-2.9,5.6-4.2c1.3-1.3,2.1-2.1,2.4-2.4
			l-9.2-10.4c-0.8,0.8-2,1.8-3.7,3c-1.7,1.3-4,2.4-6.9,3.4c-2.9,1-6.5,1.5-11,1.5c-3,0-5.9-0.7-8.8-2.1c-2.9-1.4-5.3-3.3-7.1-5.8
			c-1.9-2.5-2.8-5.3-2.8-8.6h50.5v-2.5c0-4.8-0.6-9.5-1.7-14.1C514.9,92.6,513.1,88.4,510.5,84.7z M467.2,101.5c0-2.3,0.7-4.6,2-6.8
			c1.3-2.3,3.3-4.1,5.8-5.6c2.5-1.5,5.7-2.2,9.4-2.2c3.6,0,6.5,0.7,8.8,2.2c2.3,1.5,4.1,3.4,5.3,5.6c1.2,2.3,1.8,4.5,1.8,6.8H467.2z
			"/>
		<path class="st2" d="M562.2,73.6c-3.7,0-6.8,0.6-9.4,1.7c-2.6,1.1-4.9,2.4-6.6,3.9c-1.8,1.5-3.2,2.9-4.3,4.3
			c-0.2-4.8-4.2-8.5-9-8.5h-7.8v67.6h17V106c0-5,1.7-9,5-12c3.4-3,7.4-4.5,12.1-4.5c2.9,0,5.5,0.4,7.8,1.3l3.5-16
			c-1.3-0.5-2.7-0.8-4-1C565.3,73.7,563.9,73.6,562.2,73.6z"/>
		<path class="st2" d="M261.8,47.1c0,4.4,0.9,7.7,2.8,9.8c1.8,2.1,4.7,3.2,8.5,3.2c2.2,0,4.1-0.3,5.7-1c1.6-0.7,3.2-1.7,4.7-3.2
			l-3.2-4.3c-0.8,0.8-1.7,1.5-2.6,1.9c-0.9,0.4-2.1,0.6-3.4,0.6c-1.7,0-3-0.6-3.9-1.7c-0.9-1.1-1.4-3.1-1.4-6.1V28.3h10.8v-5.9
			h-10.8v-12h-7.1v12h-6.6v5.9h6.6V47.1z"/>
		<path class="st2" d="M292.8,42.1c0-2.4,0.3-4.7,1-6.9c0.7-2.2,1.8-4,3.4-5.4c1.6-1.4,3.7-2.1,6.4-2.1c2.6,0,4.7,0.8,6.2,2.4
			c1.5,1.6,2.3,4.1,2.3,7.6v21.5h7.1V37.1c0-4.7-1.2-8.5-3.5-11.4c-2.3-2.8-5.9-4.2-10.7-4.2c-2.3,0-4.2,0.3-5.8,1
			c-1.6,0.7-2.9,1.5-4,2.5c-1,1-1.9,1.9-2.5,2.8V6.4h-7v52.8h7.1V42.1z"/>
		<path class="st2" d="M332.9,57.8c2.9,1.7,6.2,2.5,10,2.5c3.1,0,5.8-0.4,7.9-1.2c2.2-0.8,4-1.7,5.3-2.8c1.4-1,2.3-1.9,2.8-2.5
			l-4-4.3c-0.8,1-2.3,2-4.3,3.1c-2,1.1-4.6,1.6-7.7,1.6c-2.1,0-4.1-0.5-5.9-1.5c-1.8-1-3.3-2.3-4.4-4c-1.1-1.7-1.7-3.7-1.7-5.8h29
			c0-3.7-0.6-7.2-1.8-10.5c-1.2-3.3-3.1-5.9-5.8-8c-2.6-2.1-6.1-3.1-10.4-3.1c-3.6,0-6.8,0.9-9.5,2.6c-2.8,1.7-4.9,4-6.5,6.9
			c-1.6,2.9-2.3,6.1-2.3,9.7c0,3.9,0.8,7.3,2.4,10.3C327.8,53.8,330,56.1,332.9,57.8z M332.5,32.6c0.9-1.6,2.1-2.8,3.8-3.8
			c1.6-1,3.6-1.5,5.9-1.5c3.3,0,5.8,1,7.6,3c1.8,2,2.8,4.4,3,7.3H331C331.2,35.8,331.6,34.2,332.5,32.6z"/>
		<polygon class="st2" points="630.2,74.4 611.8,124 593.2,74.4 574.5,74.4 602.7,142 585.3,184.4 604.2,184.4 649,74.4 		"/>
	</g>
</g>
<g id="Layer_2">
</g>
</svg>
