<?xml version="1.0" encoding="utf-8"?>
<!-- Generator: Adobe Illustrator 26.0.2, SVG Export Plug-In . SVG Version: 6.00 Build 0)  -->
<svg version="1.1" id="Layer_1" xmlns="http://www.w3.org/2000/svg" xmlns:xlink="http://www.w3.org/1999/xlink" x="0px" y="0px"
	 viewBox="0 0 656.4 200" style="enable-background:new 0 0 656.4 200;" xml:space="preserve">
<style type="text/css">
	.st0{fill:#FFFFFF;}
</style>
<g>
	<path class="st0" d="M70.7,17.2l0,23.3c0,0.5-0.2,1-0.6,1.4L40.8,71.2l0,0l-0.1,0.1c-12.1,12.2-12,31.9,0.1,44.1l28.9,28.9
		c1,1,2.3,1.5,3.7,1.5s2.7-0.5,3.7-1.5l28.9-28.9c11.7-11.7,12.2-30.5,1.2-42.9l-2.1-2.3l-2.2,2.2l-26.5,26l0-23.5
		c0-0.9,0.4-1.8,1-2.4l26.8-26.8l16.2,16.2c9.1,9.1,13.7,21.3,12.9,34.2c-0.6,10.8-5.5,21.3-13.7,29.5l-46.3,46.3l-47.1-47.1
		c-8.4-8.4-13-19.6-13-31.5c0-11.9,4.6-23.1,13-31.5L70.7,17.2 M72.1,12.3c-0.4,0-0.8,0.1-1.1,0.5L24.2,59.7
		c-18.5,18.5-18.5,48.6,0,67.1l47.6,47.6c0.4,0.4,1,0.7,1.6,0.7s1.1-0.2,1.6-0.7l46.9-46.9c8.4-8.4,13.9-19.5,14.6-31.4
		c0.8-13.8-4.2-26.9-13.8-36.5l-16.8-16.8c-0.4-0.4-1-0.7-1.6-0.7c-0.6,0-1.1,0.2-1.6,0.7L75.3,70.3c-1.2,1.2-1.9,2.8-1.9,4.6
		l0,25.1c0,1.4,1.1,2.3,2.3,2.3c0.6,0,1.1-0.2,1.6-0.7L105,74.5c9.9,11.1,9.5,28.1-1.1,38.8L75,142.1c-0.4,0.4-1,0.7-1.6,0.7
		s-1.1-0.2-1.6-0.7L43,113.2c-11-11-11-28.8-0.1-39.8c0,0,0.1-0.1,0.1-0.1L72.3,44c0.9-0.9,1.5-2.2,1.5-3.5l0-26.6
		C73.7,12.9,72.9,12.3,72.1,12.3L72.1,12.3z"/>
</g>
<path class="st0" d="M73.5,175.1c0.6,0,1.1-0.2,1.6-0.7l46.9-46.9c8.4-8.4,13.9-19.5,14.6-31.4c0.8-13.8-4.2-26.9-13.8-36.5
	l-16.8-16.8c-0.9-0.9-2.3-0.9-3.2,0L75.3,70.3c-1.2,1.2-1.9,2.8-1.9,4.6l0,26.9c0,1.4,1.7,2.1,2.7,1.1L105,74.5
	c9.9,11.1,9.5,28.1-1.1,38.8L75,142.1c-0.4,0.4-1,0.6-1.6,0.7L73.5,175.1z"/>
<g>
	<path class="st0" d="M175.4,188c-1.3-0.4-2.4-1-3.1-1.7l1-2.1c0.7,0.7,1.6,1.2,2.8,1.6c1.1,0.4,2.3,0.6,3.5,0.6
		c1.6,0,2.7-0.3,3.5-0.8c0.8-0.5,1.2-1.2,1.2-2.1c0-0.7-0.2-1.2-0.6-1.6c-0.4-0.4-0.9-0.7-1.6-0.9s-1.5-0.5-2.6-0.7
		c-1.4-0.3-2.6-0.7-3.5-1c-0.9-0.3-1.6-0.9-2.2-1.6c-0.6-0.7-0.9-1.7-0.9-2.9c0-1,0.3-1.9,0.8-2.7c0.5-0.8,1.3-1.5,2.4-2
		s2.4-0.7,4-0.7c1.1,0,2.2,0.1,3.3,0.4c1.1,0.3,2,0.7,2.8,1.2l-0.9,2.2c-0.8-0.5-1.6-0.9-2.5-1.2c-0.9-0.3-1.8-0.4-2.7-0.4
		c-1.5,0-2.7,0.3-3.5,0.8c-0.8,0.6-1.2,1.3-1.2,2.2c0,0.7,0.2,1.2,0.7,1.6s1,0.7,1.6,0.9c0.6,0.2,1.5,0.5,2.6,0.7
		c1.4,0.3,2.6,0.7,3.4,1s1.6,0.9,2.2,1.6c0.6,0.7,0.9,1.7,0.9,2.8c0,1-0.3,1.9-0.8,2.7s-1.4,1.5-2.5,2c-1.1,0.5-2.5,0.7-4.1,0.7
		C178.1,188.6,176.7,188.4,175.4,188z"/>
	<path class="st0" d="M198.2,171.8h-6.5v-2.4h15.7v2.4h-6.5v16.6h-2.7V171.8z"/>
	<path class="st0" d="M227,188.4l-4.1-5.8c-0.5,0-0.9,0.1-1.2,0.1h-4.7v5.8h-2.7v-19h7.4c2.5,0,4.4,0.6,5.8,1.8
		c1.4,1.2,2.1,2.8,2.1,4.9c0,1.5-0.4,2.7-1.1,3.7c-0.7,1-1.8,1.8-3.1,2.2l4.5,6.4H227z M225.6,179.2c0.9-0.7,1.4-1.8,1.4-3.2
		c0-1.4-0.5-2.4-1.4-3.2c-0.9-0.7-2.2-1.1-3.9-1.1h-4.6v8.5h4.6C223.4,180.3,224.7,180,225.6,179.2z"/>
	<path class="st0" d="M250.1,183.7H240l-2.1,4.7h-2.8l8.6-19h2.7l8.6,19h-2.8L250.1,183.7z M249.2,181.5l-4.1-9.3l-4.1,9.3H249.2z"
		/>
	<path class="st0" d="M264.6,171.8h-6.5v-2.4h15.7v2.4h-6.5v16.6h-2.7V171.8z"/>
	<path class="st0" d="M294.5,186.1v2.4h-13.8v-19h13.4v2.4h-10.7v5.8h9.5v2.3h-9.5v6.1H294.5z"/>
	<path class="st0" d="M315.9,178.8h2.6v7.4c-0.9,0.8-2,1.4-3.3,1.8s-2.5,0.6-3.9,0.6c-1.9,0-3.6-0.4-5.2-1.3s-2.7-2-3.6-3.5
		c-0.9-1.5-1.3-3.1-1.3-5s0.4-3.5,1.3-5c0.9-1.5,2.1-2.6,3.6-3.5c1.5-0.8,3.3-1.2,5.2-1.2c1.5,0,2.9,0.2,4.1,0.7
		c1.2,0.5,2.3,1.2,3.2,2.2l-1.7,1.7c-1.5-1.5-3.4-2.2-5.5-2.2c-1.4,0-2.7,0.3-3.9,0.9s-2,1.5-2.7,2.6c-0.7,1.1-1,2.4-1,3.8
		c0,1.4,0.3,2.6,1,3.7c0.7,1.1,1.5,2,2.7,2.6c1.1,0.6,2.4,0.9,3.9,0.9c1.7,0,3.2-0.4,4.4-1.2V178.8z"/>
	<path class="st0" d="M327.7,169.4h2.7v19h-2.7V169.4z"/>
	<path class="st0" d="M343.4,187.4c-1.5-0.8-2.7-2-3.6-3.5c-0.9-1.5-1.3-3.1-1.3-5s0.4-3.5,1.3-5c0.9-1.5,2.1-2.6,3.6-3.5
		s3.3-1.3,5.2-1.3c1.5,0,2.8,0.2,4.1,0.7c1.2,0.5,2.3,1.2,3.1,2.2l-1.8,1.7c-1.4-1.5-3.2-2.2-5.3-2.2c-1.4,0-2.7,0.3-3.8,0.9
		c-1.1,0.6-2,1.5-2.7,2.6c-0.6,1.1-1,2.4-1,3.7s0.3,2.6,1,3.7c0.6,1.1,1.5,2,2.7,2.6c1.1,0.6,2.4,0.9,3.8,0.9c2.1,0,3.9-0.8,5.3-2.3
		l1.8,1.7c-0.9,1-1.9,1.7-3.2,2.2s-2.6,0.8-4.1,0.8C346.6,188.6,344.9,188.2,343.4,187.4z"/>
	<path class="st0" d="M392.4,188.4l0-13.8l-6.9,11.5h-1.2l-6.9-11.4v13.7h-2.6v-19h2.2l7.9,13.3l7.8-13.3h2.2l0,19H392.4z"/>
	<path class="st0" d="M416.8,183.7h-10.1l-2.1,4.7h-2.8l8.6-19h2.7l8.6,19h-2.8L416.8,183.7z M415.8,181.5l-4.1-9.3l-4.1,9.3H415.8z
		"/>
	<path class="st0" d="M441.2,188.4l-4.1-5.8c-0.5,0-0.9,0.1-1.2,0.1h-4.7v5.8h-2.7v-19h7.4c2.5,0,4.4,0.6,5.8,1.8
		c1.4,1.2,2.1,2.8,2.1,4.9c0,1.5-0.4,2.7-1.1,3.7c-0.7,1-1.8,1.8-3.1,2.2l4.5,6.4H441.2z M439.7,179.2c0.9-0.7,1.4-1.8,1.4-3.2
		c0-1.4-0.5-2.4-1.4-3.2c-0.9-0.7-2.2-1.1-3.9-1.1h-4.6v8.5h4.6C437.5,180.3,438.8,180,439.7,179.2z"/>
	<path class="st0" d="M458.3,180l-3.5,3.5v4.9h-2.7v-19h2.7V180l10.3-10.6h3.1l-8.1,8.5l8.6,10.4h-3.2L458.3,180z"/>
	<path class="st0" d="M489.3,186.1v2.4h-13.8v-19H489v2.4h-10.7v5.8h9.5v2.3h-9.5v6.1H489.3z"/>
	<path class="st0" d="M501.5,171.8H495v-2.4h15.7v2.4h-6.5v16.6h-2.7V171.8z"/>
	<path class="st0" d="M517.6,169.4h2.7v19h-2.7V169.4z"/>
	<path class="st0" d="M546.2,169.4v19H544l-11.4-14.1v14.1h-2.7v-19h2.2l11.4,14.1v-14.1H546.2z"/>
	<path class="st0" d="M569,178.8h2.6v7.4c-0.9,0.8-2,1.4-3.3,1.8s-2.5,0.6-3.9,0.6c-1.9,0-3.6-0.4-5.2-1.3s-2.7-2-3.6-3.5
		c-0.9-1.5-1.3-3.1-1.3-5s0.4-3.5,1.3-5c0.9-1.5,2.1-2.6,3.6-3.5c1.5-0.8,3.3-1.2,5.2-1.2c1.5,0,2.9,0.2,4.1,0.7
		c1.2,0.5,2.3,1.2,3.2,2.2l-1.7,1.7c-1.5-1.5-3.4-2.2-5.5-2.2c-1.4,0-2.7,0.3-3.9,0.9s-2,1.5-2.7,2.6c-0.7,1.1-1,2.4-1,3.8
		c0,1.4,0.3,2.6,1,3.7c0.7,1.1,1.5,2,2.7,2.6c1.1,0.6,2.4,0.9,3.9,0.9c1.7,0,3.2-0.4,4.4-1.2V178.8z"/>
</g>
<g>
	<path class="st0" d="M251,95.6h-40.8c-0.2,0-0.4,0.2-0.3,0.4l2.1,10.3c1.1,2.8,3.9,4.7,7,4.7h14.8c0.2,0,0.3,0.2,0.3,0.3v14.5
		c0,0.1,0,0.2-0.1,0.3c-4.8,4.2-11.6,6.2-20.3,6.2c-5.8,0-11.1-1.4-15.9-4.2c-4.9-2.8-8.7-6.7-11.7-11.8c-2.9-5.1-4.4-11.1-4.4-17.9
		c0-6.1,1.2-11.8,3.7-17.1c2.5-5.2,6-9.4,10.5-12.6c4.6-3.2,10-4.8,16.2-4.8c6.1,0,11.3,1.3,15.4,4c4,2.6,7.5,6.1,10.5,10.4
		c0.1,0.2,0.3,0.2,0.5,0.1l12.3-10.9c0.1-0.1,0.2-0.3,0.1-0.5c-3.8-5.3-8.8-9.8-15-13.4c-6.3-3.7-14.2-5.6-23.7-5.6
		c-7.3,0-14,1.3-20,4c-6.1,2.6-11.3,6.3-15.6,11c-4.4,4.7-7.8,10.1-10.2,16.2c-2.4,6.2-3.6,12.7-3.6,19.8c0,9.3,2,17.8,6.1,25.3
		c4,7.5,9.8,13.5,17.3,17.9c7.5,4.4,16.5,6.6,27,6.6c9.7,0,17.6-1.3,23.7-4c6-2.7,10.9-5.8,14.7-9.3c0.1-0.1,0.1-0.2,0.1-0.3V95.9
		C251.4,95.7,251.2,95.6,251,95.6z"/>
	<path class="st0" d="M301.6,77.8c-1.3-0.2-2.8-0.3-4.4-0.3c-3.7,0-6.8,0.6-9.4,1.7c-2.6,1.1-4.9,2.4-6.6,3.9
		c-1.8,1.5-3.2,2.9-4.3,4.3c-0.2-4.8-4.2-8.5-9-8.5h-7.8v67.6h17V110c0-5,1.7-9,5-12c3.4-3,7.4-4.5,12.1-4.5c2.9,0,5.5,0.4,7.8,1.3
		l3.5-16C304.2,78.4,302.9,78,301.6,77.8z"/>
	<path class="st0" d="M360.1,81.4c-5.4-3.3-11.7-4.9-19-4.9c-7.2,0-13.5,1.6-19,4.9c-5.4,3.3-9.7,7.6-12.8,13.1
		c-3.1,5.5-4.6,11.5-4.6,18c0,6.5,1.5,12.5,4.6,18c3.1,5.5,7.3,9.9,12.8,13.2c5.4,3.3,11.7,5,19,5c7.2,0,13.5-1.7,19-5
		c5.4-3.3,9.7-7.7,12.8-13.2c3.1-5.5,4.6-11.5,4.6-18c0-6.5-1.5-12.5-4.6-18C369.8,89.1,365.6,84.7,360.1,81.4z M358.3,122.4
		c-1.4,3.3-3.5,6.1-6.3,8.3c-2.8,2.2-6.4,3.3-10.7,3.3s-7.9-1.1-10.7-3.3c-2.8-2.2-5-5-6.3-8.3c-1.4-3.3-2.1-6.6-2.1-9.9
		c0-3.3,0.7-6.5,2.1-9.8c1.4-3.3,3.5-6,6.3-8.2c2.8-2.2,6.4-3.3,10.7-3.3s7.9,1.1,10.7,3.3c2.8,2.2,4.9,5,6.3,8.2
		c1.4,3.3,2.1,6.5,2.1,9.8C360.4,115.8,359.7,119.1,358.3,122.4z"/>
	<path class="st0" d="M412.5,127.3l-14.3-38c-2.3-6.3-8.3-10.4-15-10.4h-8.5l28.7,67.6h17.3l28.5-67.6h-18.6L412.5,127.3z"/>
	<path class="st0" d="M509.7,88.7c-2.6-3.7-6-6.7-10.2-8.9c-4.2-2.2-9.5-3.3-15.7-3.3c-6.7,0-12.7,1.6-17.8,4.7
		c-5.1,3.1-9.2,7.4-12.1,12.7c-2.9,5.3-4.4,11.3-4.4,17.9c0,7.2,1.5,13.6,4.5,19.2c3,5.6,7.1,9.9,12.5,13c5.3,3.1,11.6,4.7,18.8,4.7
		c5.3,0,9.8-0.6,13.6-1.7c3.8-1.1,6.9-2.4,9.4-3.9c2.5-1.5,4.3-2.9,5.6-4.2c1.3-1.3,2.1-2.1,2.4-2.4l-9.2-10.4c-0.8,0.8-2,1.8-3.7,3
		c-1.7,1.3-4,2.4-6.9,3.4c-2.9,1-6.5,1.5-11,1.5c-3,0-5.9-0.7-8.8-2.1c-2.9-1.4-5.3-3.3-7.1-5.8c-1.9-2.5-2.8-5.3-2.8-8.6h50.5v-2.5
		c0-4.8-0.6-9.5-1.7-14.1C514.2,96.6,512.3,92.4,509.7,88.7z M466.5,105.5c0-2.3,0.7-4.6,2-6.8c1.3-2.3,3.3-4.1,5.8-5.6
		c2.5-1.5,5.7-2.2,9.4-2.2c3.6,0,6.5,0.7,8.8,2.2c2.3,1.5,4.1,3.4,5.3,5.6c1.2,2.3,1.8,4.5,1.8,6.8H466.5z"/>
	<path class="st0" d="M561.5,77.5c-3.7,0-6.8,0.6-9.4,1.7c-2.6,1.1-4.9,2.4-6.6,3.9c-1.8,1.5-3.2,2.9-4.3,4.3
		c-0.2-4.8-4.2-8.5-9-8.5h-7.8v67.6h17V110c0-5,1.7-9,5-12c3.4-3,7.4-4.5,12.1-4.5c2.9,0,5.5,0.4,7.8,1.3l3.5-16
		c-1.3-0.5-2.7-0.8-4-1C564.6,77.6,563.1,77.5,561.5,77.5z"/>
	<path class="st0" d="M261,51.1c0,4.4,0.9,7.7,2.8,9.8c1.8,2.1,4.7,3.2,8.5,3.2c2.2,0,4.1-0.3,5.7-1c1.6-0.7,3.2-1.7,4.7-3.2
		l-3.2-4.3c-0.8,0.8-1.7,1.5-2.6,1.9c-0.9,0.4-2.1,0.6-3.4,0.6c-1.7,0-3-0.6-3.9-1.7c-0.9-1.1-1.4-3.1-1.4-6.1V32.3h10.8v-5.9h-10.8
		v-12H261v12h-6.6v5.9h6.6V51.1z"/>
	<path class="st0" d="M292.1,46c0-2.4,0.3-4.7,1-6.9c0.7-2.2,1.8-4,3.4-5.4c1.6-1.4,3.7-2.1,6.4-2.1c2.6,0,4.7,0.8,6.2,2.4
		c1.5,1.6,2.3,4.1,2.3,7.6v21.5h7.1V41.1c0-4.7-1.2-8.5-3.5-11.4c-2.3-2.8-5.9-4.2-10.7-4.2c-2.3,0-4.2,0.3-5.8,1
		c-1.6,0.7-2.9,1.5-4,2.5c-1,1-1.9,1.9-2.5,2.8V10.4h-7v52.8h7.1V46z"/>
	<path class="st0" d="M332.2,61.7c2.9,1.7,6.2,2.5,10,2.5c3.1,0,5.8-0.4,7.9-1.2c2.2-0.8,4-1.7,5.3-2.8c1.4-1,2.3-1.9,2.8-2.5
		l-4-4.3c-0.8,1-2.3,2-4.3,3.1c-2,1.1-4.6,1.6-7.7,1.6c-2.1,0-4.1-0.5-5.9-1.5c-1.8-1-3.3-2.3-4.4-4c-1.1-1.7-1.7-3.7-1.7-5.8h29
		c0-3.7-0.6-7.2-1.8-10.5c-1.2-3.3-3.1-5.9-5.8-8c-2.6-2.1-6.1-3.1-10.4-3.1c-3.6,0-6.8,0.9-9.5,2.6c-2.8,1.7-4.9,4-6.5,6.9
		c-1.6,2.9-2.3,6.1-2.3,9.7c0,3.9,0.8,7.3,2.4,10.3C327,57.8,329.3,60.1,332.2,61.7z M331.7,36.6c0.9-1.6,2.1-2.8,3.8-3.8
		c1.6-1,3.6-1.5,5.9-1.5c3.3,0,5.8,1,7.6,3c1.8,2,2.8,4.4,3,7.3h-21.7C330.4,39.8,330.9,38.1,331.7,36.6z"/>
	<polygon class="st0" points="629.4,78.4 611,128 592.4,78.4 573.8,78.4 601.9,145.9 584.6,188.4 603.4,188.4 648.3,78.4 	"/>
</g>
</svg>
